<svg t="1645928956508" class="icon" viewBox="0 0 1024 1024" version="1.1" xmlns="http://www.w3.org/2000/svg" p-id="4290" width="200" height="200"><path d="M878.60719 286.9c-50 32.2-70.7 55.1-100.3 53.8-29.6-1.3-80.5-32.7-101.5-41.6-33.1-14.1-80.3-24.7-109.2-6-23 16.6-3.3 44.5 5.2 54.9 8.5 10.4 49.9 41.6 62.1 56.9 7 8.8 7.6 21.5-6.6 23.5-27.4 7.7-47.3 1.8-65.4-2.1-18-3.8-36.8-17.5-65.9-15.6-36.5 2.4-24.1 33.9-24.1 33.9s30.2 89.9 111.5 110.2c71 17.8 396.7-145.9 432.5-205.7 34.8-57.6-67.8-107.6-138.3-62.2zM935.00719 367c-37.5 27.4-136.1 79.1-247.7 124.8-37.1 15.2-69.5 25.3-92 19.1-24.8-6.9-51-22.6-59.7-42.6-3.8-8.7-2.2-13.7 9.9-8.7 15.1 6.3 28.1 7.9 45.5 10 20.3 2.5 39.6 0 39.6 0 32.8-4.9 37.5-12.8 45.1-21.9 8.9-10.7 10.6-25.5 4.9-45.1C674.40719 381 646.00719 361 646.00719 361s-44.3-26.2-26.8-35.9c14.8-8.3 48 11.8 69 24.6 13.7 8.3 55.1 26.5 75.8 29.3 38 5.2 71.3-12.1 117-47.9 31.8-25.2 132.1-21.1 54 35.9z m-92.1 166.5c-11.9 0-21.5 9.6-21.5 21.4-21.1 157.1-159.2 278.4-323 278.4-122.3 0-228.7-67.6-283.5-167.3 145.5-31.1 227.7-75 239.3-89.7 6.6-6.7 6.6-45.5-41.9-21.4-63.9 31.8-145.7 57.7-215.3 72.6-13.9-35.8-21.5-74.7-21.5-115.4 0-177.4 144.6-321.3 323-321.3 72.6 0 147.1 25.9 201.8 70.1 0 0 9.5 8 19.3 7.7 12-0.3 19.9-8.7 19.9-20.6 0-5.1-1.9-10.1-5.3-14 0.1-0.1-1.2-1.3-1.8-1.8-0.5-0.5-1.1-0.9-1.6-1.3-63.2-51.7-144-82.9-232.2-82.9-202.2 0-366 163-366 364.1 0 43.3 7.6 84.9 21.6 123.5-15.7 2.5-30.2 4.2-43.1 5-49.8 3.4-86.5-2.3-43.1-64.2 26.8-38.3 34.8-53.9 21.5-64.3-14.1-7.5-25.8 5.2-25.8 5.2S12.90719 577.1 3.20719 619.1C-0.99281 639.6-16.09281 690 89.30719 683.4c28.3-1.8 55.4-4.9 81.3-9.1 60 119.7 184.2 201.9 327.8 201.9 183 0 337.4-132.4 364.5-306.8 1.5-9.4 1.5-9.4 1.5-14.5 0.1-11.9-9.6-21.4-21.5-21.4z" p-id="4291" fill="#1296db"></path></svg>
